<svg data-v-423bf9ae="" xmlns="http://www.w3.org/2000/svg" viewBox="0 0 197.17515198847832 60" class="font"><!----><!----><!----><g data-v-423bf9ae="" id="159bb833-1b74-4362-8469-f18c0f83820c" fill="white" transform="matrix(5.649717575005543,0,0,5.649717575005543,-1.920902319133404,-19.717513675393512)"><path d="M4.30 11.89L4.30 11.89Q4.72 11.89 5.08 11.78L5.08 11.78L5.08 11.78Q5.45 11.68 5.68 11.49L5.68 11.49L5.68 11.49Q5.80 11.41 5.87 11.41L5.87 11.41L5.87 11.41Q5.96 11.41 6.05 11.52L6.05 11.52L7 12.84L7 12.84Q7.07 12.95 7.07 13.01L7.07 13.01L7.07 13.01Q7.07 13.10 6.97 13.20L6.97 13.20L6.97 13.20Q6.47 13.66 5.75 13.89L5.75 13.89L5.75 13.89Q5.03 14.11 4.20 14.11L4.20 14.11L4.20 14.11Q3.15 14.11 2.35 13.74L2.35 13.74L2.35 13.74Q1.54 13.37 1.04 12.68L1.04 12.68L1.04 12.68Q0.34 11.70 0.34 10.30L0.34 10.30L0.34 10.30Q0.34 9.70 0.49 9.13L0.49 9.13L0.49 9.13Q0.81 7.99 1.76 7.30L1.76 7.30L1.76 7.30Q2.70 6.61 3.95 6.61L3.95 6.61L3.95 6.61Q5.39 6.61 6.29 7.54L6.29 7.54L6.29 7.54Q7.18 8.47 7.46 10.08L7.46 10.08L7.46 10.08Q7.53 10.42 7.55 10.75L7.55 10.75L7.55 10.75Q7.55 11.02 7.28 11.02L7.28 11.02L3.12 11.02L3.12 11.02Q3.01 11.02 3.02 11.14L3.02 11.14L3.09 11.33L3.09 11.33Q3.36 11.89 4.30 11.89L4.30 11.89ZM3.89 8.86L3.89 8.86Q3.32 8.86 3.09 9.42L3.09 9.42L3.05 9.53L3.04 9.58L3.04 9.58Q3.04 9.66 3.15 9.66L3.15 9.66L4.66 9.66L4.66 9.66Q4.77 9.66 4.77 9.58L4.77 9.58L4.77 9.58Q4.77 9.53 4.75 9.49L4.75 9.49L4.75 9.49Q4.73 9.45 4.72 9.42L4.72 9.42L4.72 9.42Q4.48 8.86 3.89 8.86L3.89 8.86ZM12.60 4.20L12.60 4.20Q13.59 4.20 14.35 4.60L14.35 4.60L14.35 4.60Q15.11 5.00 15.52 5.73L15.52 5.73L15.52 5.73Q15.93 6.47 15.93 7.42L15.93 7.42L15.93 7.42Q15.93 8.36 15.50 9.07L15.50 9.07L15.50 9.07Q15.06 9.79 14.28 10.18L14.28 10.18L14.28 10.18Q13.50 10.57 12.47 10.57L12.47 10.57L11.03 10.57L11.03 10.57Q10.92 10.57 10.92 10.68L10.92 10.68L10.92 13.73L10.92 13.73Q10.92 14 10.65 14L10.65 14L8.55 14L8.55 14Q8.29 14 8.29 13.73L8.29 13.73L8.29 4.47L8.29 4.47Q8.29 4.20 8.55 4.20L8.55 4.20L12.60 4.20ZM12.17 8.47L12.17 8.47Q12.68 8.47 13.00 8.20L13.00 8.20L13.00 8.20Q13.31 7.92 13.31 7.48L13.31 7.48L13.31 7.48Q13.31 7.01 13.00 6.73L13.00 6.73L13.00 6.73Q12.68 6.45 12.17 6.45L12.17 6.45L11.03 6.45L11.03 6.45Q10.92 6.45 10.92 6.57L10.92 6.57L10.92 8.36L10.92 8.36Q10.92 8.47 11.03 8.47L11.03 8.47L12.17 8.47ZM18.07 6.43L18.07 6.43Q17.40 6.43 16.98 6.02L16.98 6.02L16.98 6.02Q16.56 5.61 16.56 4.96L16.56 4.96L16.56 4.96Q16.56 4.30 16.98 3.89L16.98 3.89L16.98 3.89Q17.40 3.49 18.07 3.49L18.07 3.49L18.07 3.49Q18.76 3.49 19.17 3.89L19.17 3.89L19.17 3.89Q19.59 4.30 19.59 4.96L19.59 4.96L19.59 4.96Q19.59 5.61 19.17 6.02L19.17 6.02L19.17 6.02Q18.76 6.43 18.07 6.43L18.07 6.43ZM17.02 14L17.02 14Q16.76 14 16.76 13.73L16.76 13.73L16.76 6.99L16.76 6.99Q16.76 6.72 17.02 6.72L17.02 6.72L19.12 6.72L19.12 6.72Q19.39 6.72 19.39 6.99L19.39 6.99L19.39 13.73L19.39 13.73Q19.39 14 19.12 14L19.12 14L17.02 14ZM24.79 6.61L24.79 6.61Q25.49 6.61 26.05 6.92L26.05 6.92L26.05 6.92Q26.61 7.22 26.94 7.82L26.94 7.82L26.94 7.82Q27.27 8.41 27.27 9.23L27.27 9.23L27.27 13.73L27.27 13.73Q27.27 14 27.01 14L27.01 14L24.91 14L24.91 14Q24.64 14 24.64 13.73L24.64 13.73L24.64 9.80L24.64 9.80Q24.64 9.38 24.42 9.12L24.42 9.12L24.42 9.12Q24.21 8.86 23.86 8.86L23.86 8.86L23.86 8.86Q23.49 8.86 23.28 9.12L23.28 9.12L23.28 9.12Q23.06 9.38 23.06 9.80L23.06 9.80L23.06 13.73L23.06 13.73Q23.06 14 22.79 14L22.79 14L20.69 14L20.69 14Q20.43 14 20.43 13.73L20.43 13.73L20.43 6.99L20.43 6.99Q20.43 6.72 20.69 6.72L20.69 6.72L22.79 6.72L22.79 6.72Q23.06 6.72 23.06 6.99L23.06 6.99L23.06 7.35L23.06 7.35Q23.06 7.42 23.09 7.44L23.09 7.44L23.09 7.44Q23.13 7.46 23.17 7.41L23.17 7.41L23.17 7.41Q23.70 6.61 24.79 6.61L24.79 6.61ZM31.99 11.89L31.99 11.89Q32.41 11.89 32.77 11.78L32.77 11.78L32.77 11.78Q33.14 11.68 33.38 11.49L33.38 11.49L33.38 11.49Q33.49 11.41 33.56 11.41L33.56 11.41L33.56 11.41Q33.66 11.41 33.74 11.52L33.74 11.52L34.69 12.84L34.69 12.84Q34.76 12.95 34.76 13.01L34.76 13.01L34.76 13.01Q34.76 13.10 34.66 13.20L34.66 13.20L34.66 13.20Q34.16 13.66 33.44 13.89L33.44 13.89L33.44 13.89Q32.72 14.11 31.89 14.11L31.89 14.11L31.89 14.11Q30.84 14.11 30.04 13.74L30.04 13.74L30.04 13.74Q29.23 13.37 28.73 12.68L28.73 12.68L28.73 12.68Q28.03 11.70 28.03 10.30L28.03 10.30L28.03 10.30Q28.03 9.70 28.18 9.13L28.18 9.13L28.18 9.13Q28.50 7.99 29.45 7.30L29.45 7.30L29.45 7.30Q30.39 6.61 31.64 6.61L31.64 6.61L31.64 6.61Q33.08 6.61 33.98 7.54L33.98 7.54L33.98 7.54Q34.87 8.47 35.15 10.08L35.15 10.08L35.15 10.08Q35.22 10.42 35.24 10.75L35.24 10.75L35.24 10.75Q35.24 11.02 34.97 11.02L34.97 11.02L30.81 11.02L30.81 11.02Q30.70 11.02 30.72 11.14L30.72 11.14L30.79 11.33L30.79 11.33Q31.05 11.89 31.99 11.89L31.99 11.89ZM31.58 8.86L31.58 8.86Q31.01 8.86 30.79 9.42L30.79 9.42L30.74 9.53L30.73 9.58L30.73 9.58Q30.73 9.66 30.84 9.66L30.84 9.66L32.35 9.66L32.35 9.66Q32.47 9.66 32.47 9.58L32.47 9.58L32.47 9.58Q32.47 9.53 32.45 9.49L32.45 9.49L32.45 9.49Q32.42 9.45 32.41 9.42L32.41 9.42L32.41 9.42Q32.17 8.86 31.58 8.86L31.58 8.86Z"></path></g><!----><!----></svg>