<svg data-v-fde0c5aa="" xmlns="http://www.w3.org/2000/svg" viewBox="0 0 300 300" class="iconAbove"><!----><defs data-v-fde0c5aa=""><!----></defs><rect data-v-fde0c5aa="" fill="transparent" x="0" y="0" width="300px" height="300px" class="logo-background-square"></rect><defs data-v-fde0c5aa=""><!----></defs><g data-v-fde0c5aa="" id="78dbb5d3-6f54-4ad1-8897-e4e71fc8c38c" fill="#000000" transform="matrix(5.147808388844033,0,0,5.147808388844033,33.94265334409886,177.84097791767596)"><path d="M11.38 9.30L11.38 9.30Q11.38 9.83 11.31 10.14L11.31 10.14L6.86 10.14L6.86 10.14Q6.93 10.65 7.15 10.84L7.15 10.84L7.15 10.84Q7.38 11.02 7.83 11.02L7.83 11.02L7.83 11.02Q8.51 11.02 8.67 10.42L8.67 10.42L11.26 11.12L11.26 11.12Q11.02 12.12 10.09 12.64L10.09 12.64L10.09 12.64Q9.16 13.16 7.83 13.16L7.83 13.16L7.83 13.16Q5.84 13.16 4.81 12.22L4.81 12.22L4.81 12.22Q3.78 11.28 3.78 9.52L3.78 9.52L3.78 9.52Q3.78 7.78 4.79 6.83L4.79 6.83L4.79 6.83Q5.81 5.88 7.66 5.88L7.66 5.88L7.66 5.88Q9.46 5.88 10.42 6.80L10.42 6.80L10.42 6.80Q11.38 7.73 11.38 9.30L11.38 9.30ZM7.67 8.01L7.67 8.01Q7.31 8.01 7.11 8.22L7.11 8.22L7.11 8.22Q6.92 8.43 6.86 8.95L6.86 8.95L8.37 8.95L8.37 8.95Q8.33 8.47 8.17 8.24L8.17 8.24L8.17 8.24Q8.01 8.01 7.67 8.01L7.67 8.01ZM17.42 5.88L17.42 5.88Q18.70 5.88 19.40 6.82L19.40 6.82L19.40 6.82Q20.09 7.76 20.09 9.48L20.09 9.48L20.09 9.48Q20.09 11.23 19.38 12.19L19.38 12.19L19.38 12.19Q18.68 13.16 17.40 13.16L17.40 13.16L17.40 13.16Q16.69 13.16 16.20 12.81L16.20 12.81L16.20 12.81Q15.71 12.46 15.43 11.84L15.43 11.84L15.43 15.96L12.21 15.96L12.21 6.02L15.04 6.02L15.12 7.66L15.12 7.66Q15.39 6.83 15.98 6.36L15.98 6.36L15.98 6.36Q16.58 5.88 17.42 5.88L17.42 5.88ZM16.11 10.89L16.11 10.89Q16.48 10.89 16.66 10.60L16.66 10.60L16.66 10.60Q16.84 10.30 16.84 9.52L16.84 9.52L16.84 9.52Q16.84 8.74 16.66 8.43L16.66 8.43L16.66 8.43Q16.48 8.13 16.11 8.13L16.11 8.13L16.11 8.13Q15.78 8.13 15.60 8.45L15.60 8.45L15.60 8.45Q15.43 8.76 15.43 9.46L15.43 9.46L15.43 9.58L15.43 9.58Q15.43 10.25 15.60 10.57L15.60 10.57L15.60 10.57Q15.76 10.89 16.11 10.89L16.11 10.89ZM22.60 5.57L22.60 5.57Q21.64 5.57 21.25 5.26L21.25 5.26L21.25 5.26Q20.85 4.96 20.85 4.23L20.85 4.23L20.85 4.23Q20.85 3.50 21.25 3.19L21.25 3.19L21.25 3.19Q21.64 2.88 22.60 2.88L22.60 2.88L22.60 2.88Q23.55 2.88 23.95 3.19L23.95 3.19L23.95 3.19Q24.35 3.50 24.35 4.23L24.35 4.23L24.35 4.23Q24.35 4.96 23.95 5.26L23.95 5.26L23.95 5.26Q23.55 5.57 22.60 5.57L22.60 5.57ZM24.21 6.02L24.21 13.02L20.99 13.02L20.99 6.02L24.21 6.02ZM30.70 5.88L30.70 5.88Q31.74 5.88 32.32 6.50L32.32 6.50L32.32 6.50Q32.90 7.11 32.90 8.23L32.90 8.23L32.90 13.02L29.68 13.02L29.68 9.07L29.68 9.07Q29.68 8.61 29.57 8.43L29.57 8.43L29.57 8.43Q29.46 8.26 29.19 8.26L29.19 8.26L29.19 8.26Q28.84 8.26 28.68 8.53L28.68 8.53L28.68 8.53Q28.52 8.79 28.52 9.35L28.52 9.35L28.52 13.02L25.30 13.02L25.30 6.02L28.20 6.02L28.27 7.55L28.27 7.55Q28.57 6.73 29.19 6.31L29.19 6.31L29.19 6.31Q29.81 5.88 30.70 5.88L30.70 5.88ZM41.31 9.30L41.31 9.30Q41.31 9.83 41.24 10.14L41.24 10.14L36.79 10.14L36.79 10.14Q36.86 10.65 37.09 10.84L37.09 10.84L37.09 10.84Q37.31 11.02 37.76 11.02L37.76 11.02L37.76 11.02Q38.44 11.02 38.60 10.42L38.60 10.42L41.19 11.12L41.19 11.12Q40.95 12.12 40.02 12.64L40.02 12.64L40.02 12.64Q39.09 13.16 37.76 13.16L37.76 13.16L37.76 13.16Q35.77 13.16 34.74 12.22L34.74 12.22L34.74 12.22Q33.71 11.28 33.71 9.52L33.71 9.52L33.71 9.52Q33.71 7.78 34.73 6.83L34.73 6.83L34.73 6.83Q35.74 5.88 37.59 5.88L37.59 5.88L37.59 5.88Q39.40 5.88 40.36 6.80L40.36 6.80L40.36 6.80Q41.31 7.73 41.31 9.30L41.31 9.30ZM37.60 8.01L37.60 8.01Q37.24 8.01 37.04 8.22L37.04 8.22L37.04 8.22Q36.85 8.43 36.79 8.95L36.79 8.95L38.30 8.95L38.30 8.95Q38.26 8.47 38.10 8.24L38.10 8.24L38.10 8.24Q37.94 8.01 37.60 8.01L37.60 8.01Z"></path></g><defs data-v-fde0c5aa=""><linearGradient data-v-fde0c5aa="" gradientTransform="rotate(25)" id="2ba4ff10-7df4-4a71-bd26-d678941f927b" x1="0%" y1="0%" x2="100%" y2="0%"><stop data-v-fde0c5aa="" offset="0%" stop-color="#01648B" stop-opacity="1"></stop><stop data-v-fde0c5aa="" offset="100%" stop-color="#5BD0A4" stop-opacity="1"></stop></linearGradient></defs><g data-v-fde0c5aa="" id="5bcce9f1-af15-4bb9-8b99-98f237d458b6" stroke="none" fill="url(#2ba4ff10-7df4-4a71-bd26-d678941f927b)" transform="matrix(1.641900010616691,0,0,1.641900010616691,105.82385858791066,39.99967704593925)"><path d="M20.939 52.518l6.464-6.463 6.463 6.463-6.463 6.464zM17.404 56.055l6.464 6.463-3.964 3.964-6.464-6.463zM30.938 42.519l4.964-4.964 6.464 6.464-4.964 4.964zM37.403 56.054l3.964 3.964-6.463 6.464-3.964-3.964zM8.903 47.555l-1.21 1.21c-.024.622-.04 1.248-.04 1.879 0 1.267.055 2.513.151 3.74l2.099 2.099 3.964-3.964-4.964-4.964zM18.903 30.483l4.964-4.964-3.716-3.716c-1.866 1.219-3.589 2.845-5.124 4.804l3.876 3.876zM35.903 30.483l4.836-4.836c-1.635-1.89-3.46-3.418-5.425-4.503l-4.375 4.375 4.964 4.964zM12.44 44.019l6.463-6.464 4.964 4.964-6.464 6.463zM39.439 34.019l6.464 6.464 1.518-1.518c-.896-3.396-2.169-6.498-3.743-9.185l-4.239 4.239zM48.901 50.554l-2.998-2.999-4.964 4.964 3.964 3.964 3.96-3.96c.024-.622.04-1.248.04-1.879l-.002-.09zM32.368 34.019l-4.964 4.964-4.964-4.964 4.964-4.964zM27.403 21.983L30 19.386a13.86 13.86 0 0 0-1.722-.117c-1.092 0-2.163.131-3.209.38l2.334 2.334zM44.903 63.555l-6.464 6.464 3.765 3.765c1.755-2.445 3.229-5.35 4.344-8.583l-1.645-1.646zM27.403 81.055l-.847.847a13.86 13.86 0 0 0 1.722.117c.029 0 .057-.003.085-.003l-.96-.961zM38.894 77.546l-3.99-3.991-3.964 3.964 3.205 3.205c1.682-.759 3.276-1.83 4.749-3.178zM16.367 70.019l-6.464-6.464-.325.325c1.014 3.309 2.393 6.306 4.063 8.864l2.726-2.725zM8.903 40.483l6.464-6.464-3.116-3.116c-1.491 2.798-2.669 5.994-3.46 9.468l.112.112zM23.438 70.019l3.964-3.964 3.964 3.964-3.964 3.964zM23.867 77.519l-3.964-3.964-3.131 3.131c1.38 1.414 2.88 2.58 4.47 3.458l2.625-2.625z"></path><path d="M48.327 10.769c1.899 0 3.731.151 5.484.411-2.764-2.84-6.99-4.661-11.734-4.661C33.75 6.519 27 12.116 27 19.019c0 .691.085 1.365.215 2.026 1.406-5.8 10.309-10.276 21.112-10.276z"></path><path d="M23.51 11.652a37.482 37.482 0 0 1 3.937 3.84c-.291-3.952-2.358-8.063-5.992-11.113-6.38-5.352-15.148-5.404-19.586-.115a10.44 10.44 0 0 0-1.137 1.69c4.806-3.541 14.502-1.246 22.778 5.698z"></path><path d="M43.348 2.939a37.449 37.449 0 0 1 5.294-1.489c-3.568-1.724-8.162-1.99-12.62-.367-7.825 2.848-12.254 10.416-9.894 16.903.237.65.548 1.254.896 1.83-.663-5.93 6.172-13.182 16.324-16.877z"></path><path d="M5.484 9.769c-1.899 0-3.731.151-5.484.411 2.764-2.84 6.99-4.661 11.734-4.661 8.327 0 15.077 5.597 15.077 12.5 0 .691-.085 1.365-.216 2.026-1.405-5.8-10.308-10.276-21.111-10.276z"></path></g><!----></svg>