<svg data-v-423bf9ae="" xmlns="http://www.w3.org/2000/svg" viewBox="0 0 111.04476646824209 60" class="font"><!----><!----><defs data-v-423bf9ae=""><linearGradient data-v-423bf9ae="" gradientTransform="rotate(25)" id="bf8519e9-7993-4dc9-aeff-76a846a5aabf" x1="0%" y1="0%" x2="100%" y2="0%"><stop data-v-423bf9ae="" offset="0%" style="stop-color: rgb(8, 91, 32); stop-opacity: 1;"></stop><stop data-v-423bf9ae="" offset="100%" style="stop-color: rgb(65, 226, 150); stop-opacity: 1;"></stop></linearGradient></defs><g data-v-423bf9ae="" id="183b723f-ca69-4c78-936b-7d4137bc5cc9" fill="url(#bf8519e9-7993-4dc9-aeff-76a846a5aabf)" transform="matrix(6.396588408098992,0,0,6.396588408098992,-1.7910430842384955,-24.17910328435059)"><path d="M7.88 9.30L7.88 9.30Q7.88 9.83 7.81 10.14L7.81 10.14L3.36 10.14L3.36 10.14Q3.43 10.65 3.65 10.84L3.65 10.84L3.65 10.84Q3.88 11.02 4.33 11.02L4.33 11.02L4.33 11.02Q5.01 11.02 5.17 10.42L5.17 10.42L7.76 11.12L7.76 11.12Q7.52 12.12 6.59 12.64L6.59 12.64L6.59 12.64Q5.66 13.16 4.33 13.16L4.33 13.16L4.33 13.16Q2.34 13.16 1.31 12.22L1.31 12.22L1.31 12.22Q0.28 11.28 0.28 9.52L0.28 9.52L0.28 9.52Q0.28 7.78 1.29 6.83L1.29 6.83L1.29 6.83Q2.31 5.88 4.16 5.88L4.16 5.88L4.16 5.88Q5.96 5.88 6.92 6.80L6.92 6.80L6.92 6.80Q7.88 7.73 7.88 9.30L7.88 9.30ZM4.17 8.01L4.17 8.01Q3.81 8.01 3.61 8.22L3.61 8.22L3.61 8.22Q3.42 8.43 3.36 8.95L3.36 8.95L4.87 8.95L4.87 8.95Q4.83 8.47 4.67 8.24L4.67 8.24L4.67 8.24Q4.51 8.01 4.17 8.01L4.17 8.01ZM13.76 3.78L13.76 3.78Q17.64 3.78 17.64 7.01L17.64 7.01L17.64 7.01Q17.64 8.51 16.66 9.30L16.66 9.30L16.66 9.30Q15.68 10.08 13.76 10.08L13.76 10.08L12.12 10.08L12.12 13.02L8.86 13.02L8.86 3.78L13.76 3.78ZM13.23 7.84L13.23 7.84Q13.83 7.84 14.11 7.63L14.11 7.63L14.11 7.63Q14.38 7.42 14.38 6.97L14.38 6.97L14.38 6.97Q14.38 6.52 14.11 6.31L14.11 6.31L14.11 6.31Q13.83 6.10 13.23 6.10L13.23 6.10L12.12 6.10L12.12 7.84L13.23 7.84Z"></path></g><!----><!----></svg>